<?xml version="1.0" encoding="UTF-8" standalone="no"?>
<svg width="61px" height="16px" viewBox="0 0 61 16" version="1.1" xmlns="http://www.w3.org/2000/svg" xmlns:xlink="http://www.w3.org/1999/xlink" xmlns:sketch="http://www.bohemiancoding.com/sketch/ns">
    <defs></defs>
    <g id="Home" stroke="none" stroke-width="1" fill="none" fill-rule="evenodd" sketch:type="MSPage">
        <g sketch:type="MSArtboardGroup" transform="translate(-1010.000000, -3296.000000)" id="Footer" fill="#FFFFFF">
            <g sketch:type="MSLayerGroup" transform="translate(0.000000, 3045.000000)">
                <g id="footer-github" transform="translate(1009.000000, 251.000000)" sketch:type="MSShapeGroup">
                    <path d="M12.562125,6.84147692 L7.517625,6.84147692 C7.3875,6.84147692 7.281875,6.9456 7.281875,7.07372308 L7.281875,9.50215385 C7.281875,9.63027692 7.3875,9.73452308 7.517625,9.73452308 L9.4855,9.73452308 L9.4855,12.7516308 C9.4855,12.7516308 9.043625,12.8999385 7.822,12.8999385 C6.38075,12.8999385 4.367375,12.3814154 4.367375,8.02227692 C4.367375,3.66215385 6.463875,3.08849231 8.432125,3.08849231 C10.135875,3.08849231 10.869875,3.38387692 11.336875,3.52615385 C11.483625,3.57046154 11.619375,3.42658462 11.619375,3.29833846 L12.182125,0.952 C12.182125,0.892061538 12.1615,0.819815385 12.092,0.770707692 C11.902375,0.637538462 10.74525,0 7.822,0 C4.454375,0 1,1.41070769 1,8.19224615 C1,14.9740308 4.955,15.9846154 8.28775,15.9846154 C11.04725,15.9846154 12.72125,14.8235077 12.72125,14.8235077 C12.79025,14.7859692 12.79775,14.6910769 12.79775,14.6475077 L12.79775,7.07372308 C12.79775,6.9456 12.69225,6.84147692 12.562125,6.84147692 Z M38.559375,0.812553846 C38.559375,0.683323077 38.455375,0.579076923 38.32525,0.579076923 L35.484875,0.579076923 C35.355125,0.579076923 35.249625,0.683323077 35.249625,0.812553846 C35.249625,0.813169231 35.250375,6.21723077 35.250375,6.21723077 L30.823,6.21723077 L30.823,0.812553846 C30.823,0.683323077 30.7185,0.579076923 30.588625,0.579076923 L27.748375,0.579076923 C27.619125,0.579076923 27.51375,0.683323077 27.51375,0.812553846 L27.51375,15.4467692 C27.51375,15.5758769 27.619125,15.6809846 27.748375,15.6809846 L30.588625,15.6809846 C30.7185,15.6809846 30.823,15.5758769 30.823,15.4467692 L30.823,9.1872 L35.250375,9.1872 C35.250375,9.1872 35.242625,15.4462769 35.242625,15.4467692 C35.242625,15.5758769 35.348,15.6809846 35.477875,15.6809846 L38.325,15.6809846 C38.455125,15.6809846 38.559125,15.5758769 38.559375,15.4467692 L38.559375,0.812553846 Z M17.922,2.73292308 C17.922,1.72590769 17.102,0.912123077 16.090375,0.912123077 C15.07975,0.912123077 14.259125,1.72590769 14.259125,2.73292308 C14.259125,3.73883077 15.07975,4.55483077 16.090375,4.55483077 C17.102,4.55483077 17.922,3.73883077 17.922,2.73292308 Z M17.718875,12.3597538 L17.718875,5.60455385 C17.718875,5.47630769 17.61375,5.37144615 17.483875,5.37144615 L14.6525,5.37144615 C14.522625,5.37144615 14.406375,5.50338462 14.406375,5.63163077 L14.406375,15.3097846 C14.406375,15.5942154 14.586375,15.6787692 14.819375,15.6787692 L17.370375,15.6787692 C17.65025,15.6787692 17.718875,15.5435077 17.718875,15.3052308 L17.718875,12.3597538 Z M49.354,5.39347692 L46.535375,5.39347692 C46.406125,5.39347692 46.300875,5.49833846 46.300875,5.62744615 L46.300875,12.8030769 C46.300875,12.8030769 45.584875,13.3188923 44.5685,13.3188923 C43.55225,13.3188923 43.2825,12.8648615 43.2825,11.8850462 L43.2825,5.62744615 C43.2825,5.49833846 43.1775,5.39347692 43.048125,5.39347692 L40.1875,5.39347692 C40.058375,5.39347692 39.952625,5.49833846 39.952625,5.62744615 L39.952625,12.3588923 C39.952625,15.2691692 41.6,15.9811692 43.86625,15.9811692 C45.725375,15.9811692 47.224375,14.9698462 47.224375,14.9698462 C47.224375,14.9698462 47.29575,15.5027692 47.328,15.5660308 C47.360375,15.6290462 47.4445,15.6926769 47.535375,15.6926769 L49.35525,15.6848 C49.484375,15.6848 49.590125,15.5796923 49.590125,15.4512 L49.58925,5.62744615 C49.58925,5.49833846 49.483875,5.39347692 49.354,5.39347692 Z M55.945875,13.3100308 C54.96825,13.2807385 54.305125,12.8439385 54.305125,12.8439385 L54.305125,8.2096 C54.305125,8.2096 54.959375,7.81476923 55.762,7.74412308 C56.777,7.65464615 57.755,7.95655385 57.755,10.3405538 C57.755,12.8545231 57.313625,13.3506462 55.945875,13.3100308 Z M57.057625,5.06473846 C55.45675,5.06473846 54.367875,5.768 54.367875,5.768 L54.367875,0.812553846 C54.367875,0.683323077 54.263,0.579076923 54.1335,0.579076923 L51.285125,0.579076923 C51.155625,0.579076923 51.050375,0.683323077 51.050375,0.812553846 L51.050375,15.4467692 C51.050375,15.5758769 51.155625,15.6809846 51.2855,15.6809846 L53.26175,15.6809846 C53.35075,15.6809846 53.418125,15.6358154 53.467875,15.5566769 C53.517,15.4780308 53.587875,14.8819692 53.587875,14.8819692 C53.587875,14.8819692 54.752625,15.9687385 56.9575,15.9687385 C59.546,15.9687385 61.0305,14.6759385 61.0305,10.1650462 C61.0305,5.65415385 58.659625,5.06473846 57.057625,5.06473846 Z M25.88225,5.37009231 L23.751625,5.37009231 C23.751625,5.37009231 23.748375,2.59926154 23.748375,2.59864615 C23.748375,2.49378462 23.6935,2.44135385 23.570375,2.44135385 L20.666875,2.44135385 C20.554,2.44135385 20.493375,2.49021538 20.493375,2.59704615 L20.493375,5.46104615 C20.493375,5.46104615 19.038375,5.80689231 18.94,5.83483077 C18.842,5.86276923 18.769875,5.95175385 18.769875,6.05784615 L18.769875,7.8576 C18.769875,7.98707692 18.874875,8.09144615 19.00475,8.09144615 L20.493375,8.09144615 L20.493375,12.4210462 C20.493375,15.6369231 22.784375,15.9528615 24.330375,15.9528615 C25.03675,15.9528615 25.88175,15.7294769 26.02125,15.6787692 C26.105625,15.6482462 26.154625,15.5622154 26.154625,15.4689231 L26.157,13.4891077 C26.157,13.36 26.04625,13.2555077 25.9215,13.2555077 C25.797375,13.2555077 25.47975,13.3052308 25.15275,13.3052308 C24.10625,13.3052308 23.751625,12.8260923 23.751625,12.2059077 C23.751625,11.5862154 23.7515,8.09144615 23.7515,8.09144615 L25.88225,8.09144615 C26.012125,8.09144615 26.11725,7.98707692 26.11725,7.8576 L26.11725,5.60332308 C26.11725,5.47421538 26.012125,5.37009231 25.88225,5.37009231 Z" id="github"></path>
                </g>
            </g>
        </g>
    </g>
</svg>
